<svg xmlns="http://www.w3.org/2000/svg" viewBox="0 0 400 300" width="400" height="300">
  <!-- Sushi Kartlar Pro — Koyu zemin, kırmızı aksanlar -->
  <defs>
    <linearGradient id="rg13" x1="0" y1="0" x2="1" y2="0">
      <stop offset="0%" stop-color="#ef4444"/>
      <stop offset="100%" stop-color="#dc2626"/>
    </linearGradient>
    <radialGradient id="glow13" cx="50%" cy="30%" r="50%">
      <stop offset="0%" stop-color="#ef4444" stop-opacity=".18"/>
      <stop offset="100%" stop-color="#0f172a" stop-opacity="0"/>
    </radialGradient>
  </defs>
  <rect width="400" height="300" fill="#0f172a"/>
  <rect width="400" height="300" fill="url(#glow13)"/>
  <!-- Nav -->
  <rect width="400" height="44" fill="rgba(15,23,42,.95)"/>
  <rect width="400" height="1" y="43" fill="rgba(239,68,68,.25)"/>
  <rect x="14" y="13" width="100" height="18" rx="5" fill="url(#rg13)" opacity=".15"/>
  <text x="64" y="26" font-size="11" fill="#ef4444" font-family="Arial" text-anchor="middle" opacity=".9">🍣 Sushi Pro</text>
  <!-- Kategori şeridi -->
  <rect y="44" width="400" height="30" fill="rgba(15,23,42,.8)"/>
  <rect x="14" y="51" width="55" height="16" rx="8" fill="#ef4444" opacity=".85"/>
  <text x="41" y="63" font-size="8" fill="#fff" font-family="Arial" text-anchor="middle">Suşi</text>
  <rect x="76" y="51" width="50" height="16" rx="8" fill="rgba(239,68,68,.15)" stroke="rgba(239,68,68,.3)" stroke-width="1"/>
  <text x="101" y="63" font-size="8" fill="#fca5a5" font-family="Arial" text-anchor="middle">Ramen</text>
  <rect x="133" y="51" width="55" height="16" rx="8" fill="rgba(239,68,68,.15)" stroke="rgba(239,68,68,.3)" stroke-width="1"/>
  <text x="160" y="63" font-size="8" fill="#fca5a5" font-family="Arial" text-anchor="middle">İçecekler</text>
  <!-- 2x2 Kart grid -->
  <rect x="14" y="84" width="183" height="98" rx="12" fill="rgba(255,255,255,.04)" stroke="rgba(239,68,68,.2)" stroke-width="1"/>
  <rect x="14" y="84" width="183" height="50" rx="12" fill="rgba(239,68,68,.1)"/>
  <rect x="24" y="144" width="100" height="8" rx="3" fill="#f1f5f9" opacity=".5"/>
  <rect x="24" y="158" width="60" height="6" rx="2" fill="#64748b" opacity=".5"/>
  <rect x="24" y="170" width="50" height="16" rx="6" fill="url(#rg13)" opacity=".6"/>

  <rect x="203" y="84" width="183" height="98" rx="12" fill="rgba(255,255,255,.04)" stroke="rgba(239,68,68,.2)" stroke-width="1"/>
  <rect x="203" y="84" width="183" height="50" rx="12" fill="rgba(239,68,68,.1)"/>
  <rect x="213" y="144" width="110" height="8" rx="3" fill="#f1f5f9" opacity=".5"/>
  <rect x="213" y="158" width="70" height="6" rx="2" fill="#64748b" opacity=".5"/>
  <rect x="213" y="170" width="50" height="16" rx="6" fill="url(#rg13)" opacity=".6"/>

  <rect x="14" y="190" width="183" height="98" rx="12" fill="rgba(255,255,255,.04)" stroke="rgba(239,68,68,.2)" stroke-width="1"/>
  <rect x="14" y="190" width="183" height="50" rx="12" fill="rgba(239,68,68,.1)"/>
  <rect x="24" y="250" width="90" height="8" rx="3" fill="#f1f5f9" opacity=".5"/>
  <rect x="24" y="264" width="55" height="6" rx="2" fill="#64748b" opacity=".5"/>
  <rect x="24" y="276" width="50" height="16" rx="6" fill="url(#rg13)" opacity=".6"/>

  <rect x="203" y="190" width="183" height="98" rx="12" fill="rgba(255,255,255,.04)" stroke="rgba(239,68,68,.2)" stroke-width="1"/>
  <rect x="203" y="190" width="183" height="50" rx="12" fill="rgba(239,68,68,.1)"/>
  <rect x="213" y="250" width="100" height="8" rx="3" fill="#f1f5f9" opacity=".5"/>
  <rect x="213" y="264" width="60" height="6" rx="2" fill="#64748b" opacity=".5"/>
  <rect x="213" y="276" width="50" height="16" rx="6" fill="url(#rg13)" opacity=".6"/>
  <text x="200" y="296" font-family="Arial,sans-serif" font-size="9" fill="#ef4444" text-anchor="middle" opacity=".8">Sushi Kartlar Pro</text>
</svg>
