<svg xmlns="http://www.w3.org/2000/svg" viewBox="0 0 400 300" width="400" height="300">
  <!-- Kafe Minimal — Bej/taş tonları, minimal düzen -->
  <rect width="400" height="300" fill="#fafaf9"/>
  <!-- Nav -->
  <rect width="400" height="44" fill="#fff" stroke="#e7e5e4" stroke-width="1"/>
  <rect x="14" y="14" width="80" height="16" rx="4" fill="#78716c" opacity=".5"/>
  <rect x="300" y="14" width="60" height="16" rx="20" fill="#44403c" opacity=".15"/>
  <text x="330" y="26" font-size="9" fill="#44403c" font-family="Arial" text-anchor="middle" opacity=".7">Keşfet</text>
  <!-- Kategori pill şeridi -->
  <rect y="44" width="400" height="36" fill="#f5f5f4"/>
  <rect x="14" y="54" width="55" height="16" rx="8" fill="#44403c"/>
  <text x="41" y="66" font-size="8" fill="#fff" font-family="Arial" text-anchor="middle">Kahveler</text>
  <rect x="76" y="54" width="60" height="16" rx="8" fill="#e7e5e4"/>
  <text x="106" y="66" font-size="8" fill="#78716c" font-family="Arial" text-anchor="middle">Atıştırmalık</text>
  <rect x="143" y="54" width="50" height="16" rx="8" fill="#e7e5e4"/>
  <text x="168" y="66" font-size="8" fill="#78716c" font-family="Arial" text-anchor="middle">Tatlılar</text>
  <!-- Ürün listesi minimal -->
  <rect x="14" y="96" width="372" height="44" rx="10" fill="#fff" stroke="#e7e5e4" stroke-width="1"/>
  <circle cx="45" cy="118" r="14" fill="#f5f5f4"/>
  <rect x="70" y="108" width="120" height="8" rx="3" fill="#292524" opacity=".7"/>
  <rect x="70" y="122" width="80" height="6" rx="2" fill="#a8a29e" opacity=".6"/>
  <rect x="350" y="110" width="30" height="16" rx="4" fill="#44403c" opacity=".12"/>
  <text x="365" y="122" font-size="9" fill="#44403c" font-family="Arial" text-anchor="middle" opacity=".8">₺85</text>

  <rect x="14" y="148" width="372" height="44" rx="10" fill="#fff" stroke="#e7e5e4" stroke-width="1"/>
  <circle cx="45" cy="170" r="14" fill="#f5f5f4"/>
  <rect x="70" y="160" width="100" height="8" rx="3" fill="#292524" opacity=".7"/>
  <rect x="70" y="174" width="70" height="6" rx="2" fill="#a8a29e" opacity=".6"/>
  <rect x="350" y="162" width="30" height="16" rx="4" fill="#44403c" opacity=".12"/>
  <text x="365" y="174" font-size="9" fill="#44403c" font-family="Arial" text-anchor="middle" opacity=".8">₺45</text>

  <rect x="14" y="200" width="372" height="44" rx="10" fill="#fff" stroke="#e7e5e4" stroke-width="1"/>
  <circle cx="45" cy="222" r="14" fill="#f5f5f4"/>
  <rect x="70" y="212" width="140" height="8" rx="3" fill="#292524" opacity=".7"/>
  <rect x="70" y="226" width="90" height="6" rx="2" fill="#a8a29e" opacity=".6"/>
  <rect x="350" y="214" width="30" height="16" rx="4" fill="#44403c" opacity=".12"/>
  <text x="365" y="226" font-size="9" fill="#44403c" font-family="Arial" text-anchor="middle" opacity=".8">₺60</text>

  <text x="200" y="297" font-family="Arial,sans-serif" font-size="10" fill="#78716c" text-anchor="middle" opacity=".8">Kafe Minimal</text>
</svg>
