<svg xmlns="http://www.w3.org/2000/svg" viewBox="0 0 400 300" width="400" height="300">
  <!-- Kafe Vegan Minimal — Açık, temiz, hero + pill kategoriler + liste -->
  <defs>
    <linearGradient id="hero02" x1="0" y1="0" x2="0" y2="1">
      <stop offset="0%" stop-color="#16a34a"/>
      <stop offset="100%" stop-color="#4ade80"/>
    </linearGradient>
    <clipPath id="clip02"><rect width="400" height="300" rx="12"/></clipPath>
  </defs>
  <rect width="400" height="300" fill="#f8f8f6" clip-path="url(#clip02)"/>
  <!-- Hero -->
  <rect width="400" height="110" fill="url(#hero02)"/>
  <text x="200" y="48" font-size="20" fill="#fff" font-family="Arial" text-anchor="middle" font-weight="bold">🌿 Kafe Vegan Minimal</text>
  <text x="200" y="70" font-size="11" fill="rgba(255,255,255,.8)" font-family="Arial" text-anchor="middle">Doğadan ilham alan lezzetler</text>
  <!-- Search input -->
  <rect x="20" y="84" width="360" height="28" rx="14" fill="rgba(255,255,255,.25)" stroke="rgba(255,255,255,.4)" stroke-width="1"/>
  <text x="200" y="101" font-size="10" fill="rgba(255,255,255,.7)" font-family="Arial" text-anchor="middle">🔍  Ürün ara…</text>
  <!-- Pill categories -->
  <rect x="8" y="120" width="74" height="24" rx="12" fill="#16a34a"/>
  <text x="45" y="136" font-size="9" fill="#fff" font-family="Arial" text-anchor="middle" font-weight="bold">Tümü</text>
  <rect x="90" y="120" width="74" height="24" rx="12" fill="#fff" stroke="#e5e7eb" stroke-width="1.5"/>
  <text x="127" y="136" font-size="9" fill="#374151" font-family="Arial" text-anchor="middle">Kahvaltı</text>
  <rect x="172" y="120" width="74" height="24" rx="12" fill="#fff" stroke="#e5e7eb" stroke-width="1.5"/>
  <text x="209" y="136" font-size="9" fill="#374151" font-family="Arial" text-anchor="middle">Ana Yemek</text>
  <rect x="254" y="120" width="74" height="24" rx="12" fill="#fff" stroke="#e5e7eb" stroke-width="1.5"/>
  <text x="291" y="136" font-size="9" fill="#374151" font-family="Arial" text-anchor="middle">İçecekler</text>
  <!-- List items -->
  <rect x="8" y="154" width="384" height="42" rx="12" fill="#fff" stroke="#f3f4f6" stroke-width="1"/>
  <circle cx="38" cy="175" r="16" fill="#d1fae5"/>
  <text x="38" y="182" font-size="16" text-anchor="middle">🥗</text>
  <rect x="62" y="162" width="110" height="8" rx="3" fill="#1f2937"/>
  <rect x="62" y="176" width="80" height="6" rx="3" fill="#9ca3af"/>
  <rect x="330" y="166" width="50" height="10" rx="4" fill="#dcfce7"/>
  <text x="355" y="175" font-size="9" fill="#16a34a" font-family="Arial" text-anchor="middle" font-weight="bold">89 ₺</text>
  <rect x="8" y="204" width="384" height="42" rx="12" fill="#fff" stroke="#f3f4f6" stroke-width="1"/>
  <circle cx="38" cy="225" r="16" fill="#fef9c3"/>
  <text x="38" y="232" font-size="16" text-anchor="middle">🥤</text>
  <rect x="62" y="212" width="130" height="8" rx="3" fill="#1f2937"/>
  <rect x="62" y="226" width="90" height="6" rx="3" fill="#9ca3af"/>
  <rect x="330" y="216" width="50" height="10" rx="4" fill="#dcfce7"/>
  <text x="355" y="225" font-size="9" fill="#16a34a" font-family="Arial" text-anchor="middle" font-weight="bold">45 ₺</text>
  <rect x="8" y="254" width="384" height="42" rx="12" fill="#fff" stroke="#f3f4f6" stroke-width="1"/>
  <circle cx="38" cy="275" r="16" fill="#fee2e2"/>
  <text x="38" y="282" font-size="16" text-anchor="middle">🌿</text>
  <rect x="62" y="262" width="100" height="8" rx="3" fill="#1f2937"/>
  <rect x="62" y="276" width="70" height="6" rx="3" fill="#9ca3af"/>
  <rect x="330" y="266" width="50" height="10" rx="4" fill="#dcfce7"/>
  <text x="355" y="275" font-size="9" fill="#16a34a" font-family="Arial" text-anchor="middle" font-weight="bold">120 ₺</text>
  <!-- New badge -->
  <rect x="310" y="258" width="76" height="22" rx="11" fill="#16a34a"/>
  <text x="348" y="273" font-size="10" fill="#fff" font-family="Arial" text-anchor="middle" font-weight="bold">● YENİ TEMA</text>
</svg>
